<svg xmlns="http://www.w3.org/2000/svg" xmlns:xlink="http://www.w3.org/1999/xlink" preserveAspectRatio="xMidYMid" width="19" height="19" viewBox="0 0 19 19">
  <defs>
    <style>
      .cls-1 {
        fill: #fff;
        fill-rule: evenodd;
      }
    </style>
  </defs>
  <path d="M9.500,19.000 C4.253,19.000 -0.000,14.747 -0.000,9.500 C-0.000,4.253 4.253,-0.000 9.500,-0.000 C14.747,-0.000 19.000,4.253 19.000,9.500 C19.000,14.747 14.747,19.000 9.500,19.000 ZM9.500,2.000 C5.358,2.000 2.000,5.358 2.000,9.500 C2.000,13.642 5.358,17.000 9.500,17.000 C13.642,17.000 17.000,13.642 17.000,9.500 C17.000,5.358 13.642,2.000 9.500,2.000 ZM8.000,11.000 L8.000,9.000 L8.000,5.000 L10.000,5.000 L10.000,9.000 L14.000,9.000 L14.000,11.000 L10.000,11.000 L8.000,11.000 Z" class="cls-1"/>
</svg>
